<?xml version="1.0" encoding="utf-8"?>
<!-- Svg Vector Icons : http://www.onlinewebfonts.com/icon -->
<!DOCTYPE svg PUBLIC "-//W3C//DTD SVG 1.1//EN" "http://www.w3.org/Graphics/SVG/1.1/DTD/svg11.dtd">
<svg version="1.1" xmlns="http://www.w3.org/2000/svg" xmlns:xlink="http://www.w3.org/1999/xlink" x="0px" y="0px" viewBox="0 0 1000 1000" enable-background="new 0 0 1000 1000" xml:space="preserve">
<metadata> Svg Vector Icons : http://www.onlinewebfonts.com/icon </metadata>
<g><g transform="translate(0.000000,512.000000) scale(0.100000,-0.100000)"><path d="M4223.7,4991.8c-201.1-44-411.7-168.5-601.3-354.2c-296.8-293-448.1-563-649.1-1164.2c-248.9-743-386.8-1390.2-421.3-1983.8c-24.9-428.9-32.6-494-78.5-612.7c-65.1-176.2-210.6-279.6-390.6-279.6c-78.5,0-97.7-67-51.7-195.3c158.9-450,653-668.3,1530-674l310.2-1.9l19.2-80.4c36.4-139.8,26.8-285.3-24.9-384.9c-42.1-80.4-248.9-302.5-404-430.8l-55.5-47.9l84.2-273.8c93.8-302.5,168.5-436.6,377.2-679.8c520.8-605.1,1304-714.2,1926.3-268.1c168.5,118.7,407.9,375.3,541.9,578.3c86.2,132.1,130.2,225.9,189.6,407.9l74.7,233.6l-93.8,78.5C6351.1-1013,6190.2-835,6140.5-739.2c-51.7,101.5-63.2,271.9-24.9,398.3l21.1,70.9h367.6c379.1-1.9,584,19.2,844.4,84.3c383,97.6,639.6,298.7,739.1,585.9c55.5,153.2,36.4,187.6-109.1,204.9c-139.8,15.3-224,68.9-287.2,176.2c-76.6,132.1-101.5,256.6-122.5,649.1c-24.9,467.2-65.1,739.1-185.8,1235.1c-111.1,461.5-333.2,1133.6-450,1369.1c-105.3,210.6-270,438.5-438.5,605.1c-279.6,279.6-587.9,402.1-938.3,375.3c-145.5-11.5-314-63.2-430.8-132.1l-63.2-36.4l-139.8,67C4702.4,5020.6,4476.5,5047.4,4223.7,4991.8z"/><path d="M3040.4-1445.8l-153.2-86.2l-178.1-492.1c-97.7-270-176.2-497.9-174.3-509.4c0-9.6,143.6-143.6,315.9-294.9c174.2-151.3,329.3-294.9,346.6-319.8c26.8-42.1,21.1-59.4-78.5-287.2c-59.4-134-107.2-248.9-107.2-256.6c0-11.5,549.6-1034,561-1047.4c9.6-7.6,765.9-45.9,773.6-36.4c15.3,13.4-61.3,233.6-224,643.4c-333.2,838.7-618.5,1694.6-773.6,2336.1c-93.8,383-111.1,440.4-134,438.5C3203.1-1357.7,3124.6-1397.9,3040.4-1445.8z"/><path d="M6726.4-1541.5c-216.4-972.7-572.5-2066.1-974.6-3000.5c-53.6-124.5-95.7-231.7-90-235.5c13.4-13.4,746.8,32.6,762.1,47.9c15.3,17.2,570.6,1034,570.6,1045.5c0,5.7-47.9,118.7-107.2,250.8c-99.6,225.9-103.4,245.1-76.6,285.3c15.3,24.9,170.4,168.5,344.7,319.8c172.3,151.3,316,285.3,316,294.9c1.9,11.5-76.6,239.3-174.3,509.4l-178.1,488.3l-157,90c-88.1,49.8-166.6,90-176.2,90C6776.2-1355.8,6749.4-1440,6726.4-1541.5z"/><path d="M2234.2-1842.1c-697-333.2-1030.2-538.1-1267.6-785.1c-216.4-222.1-337-503.6-425.1-995.7c-21.1-114.9-38.3-245.1-38.3-287.2c0-158.9,126.4-342.7,279.6-405.9c120.6-49.8,1076.1-227.9,1642.9-304.5c294.9-40.2,880.8-101.5,890.4-93.8c3.8,1.9-109.1,218.3-250.8,480.6c-141.7,260.4-262.3,490.2-270,507.4c-5.7,19.2,5.7,74.7,26.8,124.5c23,51.7,68.9,157,103.4,237.4l63.2,145.5l-342.8,300.6c-229.8,203-342.7,314-342.7,340.8c0,21.1,68.9,227.9,153.2,461.5c84.2,231.7,151.3,428.9,149.4,434.7C2601.9-1673.7,2435.3-1746.4,2234.2-1842.1z"/><path d="M7396.6-1681.3c0-9.6,68.9-208.7,153.2-440.4c84.3-231.7,153.2-438.5,153.2-459.6c0-21.1-126.4-147.5-342.8-337l-342.7-300.6l105.3-237.4l103.4-239.4L6948.5-4205c-151.3-281.5-275.7-511.3-273.8-513.2c9.6-9.6,723.8,72.8,1037.8,118.7c423.2,59.4,1011,162.8,1298.3,227.9c298.7,67,419.3,158.9,474.9,361.9c49.8,176.1-74.7,756.4-229.8,1074.2c-82.3,166.6-114.9,212.5-250.8,340.8c-252.8,243.2-584,442.3-1305.9,787C7532.5-1729.2,7396.6-1671.7,7396.6-1681.3z"/></g></g>
</svg>