<?xml version="1.0" encoding="utf-8"?>
<!-- Svg Vector Icons : http://www.onlinewebfonts.com/icon -->
<!DOCTYPE svg PUBLIC "-//W3C//DTD SVG 1.1//EN" "http://www.w3.org/Graphics/SVG/1.1/DTD/svg11.dtd">
<svg version="1.1" xmlns="http://www.w3.org/2000/svg" xmlns:xlink="http://www.w3.org/1999/xlink" x="0px" y="0px" viewBox="0 0 1000 1000" enable-background="new 0 0 1000 1000" xml:space="preserve">
<metadata> Svg Vector Icons : http://www.onlinewebfonts.com/icon </metadata>
<g><g transform="translate(0.000000,512.000000) scale(0.100000,-0.100000)"><path d="M3166.8,4976.4c-46.1-71.1-57.6-309.4-21.1-463.1c17.3-73,26.9-136.4,21.1-142.2c-23.1-25-196,90.3-246,165.3c-42.3,63.4-65.3,80.7-109.5,80.7c-82.6,0-101.8-53.8-111.5-317.1c-9.6-269,17.3-403.6,121.1-616.9c48-98,101.8-171,186.4-249.8l121.1-113.4l-15.4-384.3c-15.4-426.6-32.7-505.4-140.3-624.6c-144.1-157.6-178.7-317.1-123-536.2c86.5-344,215.2-603.4,384.3-780.2c63.4-67.3,119.2-146.1,134.5-192.2c42.3-136.5,192.2-472.7,361.3-812.9c155.7-315.2,165.3-340.1,173-482.4c7.7-124.9,1.9-161.4-32.7-228.7l-42.3-82.6l76.9-32.7c94.2-42.3,907-657.2,895.5-676.4c-5.8-7.7-151.8-103.8-326.7-211.4c-251.7-153.7-324.8-190.3-345.9-172.9c-92.2,76.9-443.9,680.3-534.2,922.4l-32.7,84.5l-84.6-82.6l-84.6-84.5l65.3-146.1c146-322.8,524.6-939.7,601.5-980.1c50-26.9,67.3-19.2,320.9,136.4c117.2,71.1,217.1,130.7,222.9,130.7c5.8,0,46.1-80.7,92.2-180.6l80.7-180.6l-167.2-1218.4c-90.3-668.8-171-1231.8-174.9-1251c-9.6-30.8,25-32.7,557.3-32.7h568.8l-11.5,53.8c-3.8,28.8-86.5,591.9-180.6,1252.9l-171,1201.1l69.2,157.6c36.5,88.4,73,159.5,80.7,159.5c7.7,0,96.1-50,197.9-113.4c230.6-142.2,246-148,309.4-96.1c119.1,92.2,488.1,707.2,609.2,1014.6l36.5,92.3l-84.6,82.6c-76.9,74.9-86.5,78.8-98,46.1c-109.5-319-324.8-705.2-511.2-918.6l-65.3-74.9l-305.5,188.3c-169.1,103.8-317.1,197.9-330.5,209.5c-17.3,15.4,84.6,98,418.9,334.4c244,172.9,484.2,332.4,536.1,353.6l92.2,38.4l-36.5,78.8c-40.4,90.3-46.1,234.5-15.4,349.8c11.5,42.3,78.8,194.1,151.8,336.3c128.8,255.6,338.2,734.1,382.4,864.8c11.5,36.5,67.3,111.4,123,167.2c65.3,61.5,134.5,155.6,182.6,251.7c88.4,169.1,209.5,511.2,226.8,641.9c17.3,123-32.7,274.8-126.8,390.1c-136.4,161.4-140.3,176.8-155.7,557.3c-7.7,190.2-21.2,405.5-26.9,478.5c-67.3,722.6-559.2,1268.3-1304.8,1439.3c-144.1,32.7-240.2,38.4-549.6,40.4c-326.7,0-399.7-5.8-576.5-46.1c-157.6-36.5-259.4-46.1-461.2-48c-255.6,0-261.4,0-390.1,63.4c-86.5,42.3-153.7,94.2-207.5,159.5C3276.4,5032.1,3214.9,5047.5,3166.8,4976.4z"/><path d="M3080.3-1422.8c-90.3-51.9-378.6-197.9-643.8-320.9c-780.2-367.1-1149.2-580.4-1410.5-820.6c-234.4-211.4-330.5-426.6-443.9-982c-69.2-340.1-71.1-407.4-11.5-532.3c55.7-123,157.6-211.4,284.4-249.8c395.9-117.2,1721.8-320.9,2504-384.3c611.1-48,551.5-48,540-1.9c-63.4,259.4-401.6,2071.6-528.5,2834.5c-50,301.7-99.9,549.6-109.5,551.5C3251.4-1326.7,3170.7-1369,3080.3-1422.8z"/><path d="M6716.2-1392.1c-9.6-40.3-59.6-328.6-109.5-639.9c-123-776.4-422.8-2444.4-482.3-2682.7c-9.6-34.6-1.9-38.4,53.8-32.7c357.4,28.8,620.7,55.7,928.2,94.2c814.8,103.8,2008.2,315.2,2123.5,372.8c99.9,50,201.8,174.9,230.6,282.5c50,174.9-67.3,732.1-219.1,1055c-192.2,403.5-549.6,657.2-1656.5,1179.9c-442,207.5-661.1,320.9-799.4,411.2l-51.9,34.6L6716.2-1392.1z"/></g></g>
</svg>